{
    "asset" : {
        "generator" : "Khronos glTF Blender I/O v1.3.48",
        "version" : "2.0"
    },
    "scene" : 0,
    "scenes" : [
        {
            "name" : "Scene",
            "nodes" : [
                0
            ]
        }
    ],
    "nodes" : [
        {
            "mesh" : 0,
            "name" : "lark_3",
            "rotation" : [
                0.7071068286895752,
                0,
                0,
                0.7071067094802856
            ],
            "translation" : [
                0,
                -1.1234524250030518,
                0
            ]
        }
    ],
    "materials" : [
        {
            "alphaMode" : "BLEND",
            "doubleSided" : true,
            "emissiveFactor" : [
                0,
                0,
                0
            ],
            "name" : "model1:material0000.001",
            "pbrMetallicRoughness" : {
                "baseColorTexture" : {
                    "index" : 0,
                    "texCoord" : 0
                },
                "metallicFactor" : 1,
                "roughnessFactor" : 0.9666666388511658
            }
        },
        {
            "alphaMode" : "BLEND",
            "doubleSided" : true,
            "emissiveFactor" : [
                0,
                0,
                0
            ],
            "name" : "model1:material0002",
            "pbrMetallicRoughness" : {
                "baseColorTexture" : {
                    "index" : 1,
                    "texCoord" : 0
                },
                "metallicFactor" : 1,
                "roughnessFactor" : 0.9666666388511658
            }
        },
        {
            "alphaMode" : "BLEND",
            "doubleSided" : true,
            "emissiveFactor" : [
                0,
                0,
                0
            ],
            "name" : "model:material0000.001",
            "pbrMetallicRoughness" : {
                "baseColorTexture" : {
                    "index" : 2,
                    "texCoord" : 0
                },
                "metallicFactor" : 1,
                "roughnessFactor" : 0.9666666388511658
            }
        },
        {
            "alphaMode" : "BLEND",
            "doubleSided" : true,
            "emissiveFactor" : [
                0,
                0,
                0
            ],
            "name" : "model:material0002",
            "pbrMetallicRoughness" : {
                "baseColorTexture" : {
                    "index" : 3,
                    "texCoord" : 0
                },
                "metallicFactor" : 1,
                "roughnessFactor" : 0.9666666388511658
            }
        },
        {
            "alphaMode" : "BLEND",
            "doubleSided" : true,
            "emissiveFactor" : [
                0,
                0,
                0
            ],
            "name" : "initialShadingGroup",
            "pbrMetallicRoughness" : {
                "baseColorFactor" : [
                    0.5,
                    0.5,
                    0.5,
                    1
                ],
                "metallicFactor" : 0,
                "roughnessFactor" : 1
            }
        }
    ],
    "meshes" : [
        {
            "name" : "lark_3",
            "primitives" : [
                {
                    "attributes" : {
                        "POSITION" : 0,
                        "NORMAL" : 1,
                        "TEXCOORD_0" : 2
                    },
                    "indices" : 3,
                    "material" : 0
                },
                {
                    "attributes" : {
                        "POSITION" : 4,
                        "NORMAL" : 5,
                        "TEXCOORD_0" : 6
                    },
                    "indices" : 7,
                    "material" : 1
                },
                {
                    "attributes" : {
                        "POSITION" : 8,
                        "NORMAL" : 9,
                        "TEXCOORD_0" : 10
                    },
                    "indices" : 11,
                    "material" : 2
                },
                {
                    "attributes" : {
                        "POSITION" : 12,
                        "NORMAL" : 13,
                        "TEXCOORD_0" : 14
                    },
                    "indices" : 15,
                    "material" : 3
                },
                {
                    "attributes" : {
                        "POSITION" : 16,
                        "NORMAL" : 17,
                        "TEXCOORD_0" : 18
                    },
                    "indices" : 19,
                    "material" : 4
                }
            ]
        }
    ],
    "textures" : [
        {
            "source" : 0
        },
        {
            "source" : 1
        },
        {
            "source" : 0
        },
        {
            "source" : 1
        }
    ],
    "images" : [
        {
            "bufferView" : 4,
            "mimeType" : "image/jpeg",
            "name" : "texture0"
        },
        {
            "bufferView" : 9,
            "mimeType" : "image/jpeg",
            "name" : "texture1"
        }
    ],
    "accessors" : [
        {
            "bufferView" : 0,
            "componentType" : 5126,
            "count" : 371,
            "max" : [
                -0.5321639776229858,
                1.0759849548339844,
                -0.7398959994316101
            ],
            "min" : [
                -1.8780280351638794,
                -0.9656209945678711,
                -2.149986982345581
            ],
            "type" : "VEC3"
        },
        {
            "bufferView" : 1,
            "componentType" : 5126,
            "count" : 371,
            "type" : "VEC3"
        },
        {
            "bufferView" : 2,
            "componentType" : 5126,
            "count" : 371,
            "type" : "VEC2"
        },
        {
            "bufferView" : 3,
            "componentType" : 5123,
            "count" : 381,
            "type" : "SCALAR"
        },
        {
            "bufferView" : 5,
            "componentType" : 5126,
            "count" : 115,
            "max" : [
                -0.5321639776229858,
                1.0759849548339844,
                -0.7398959994316101
            ],
            "min" : [
                -1.8780280351638794,
                -0.9656209945678711,
                -2.1700479984283447
            ],
            "type" : "VEC3"
        },
        {
            "bufferView" : 6,
            "componentType" : 5126,
            "count" : 115,
            "type" : "VEC3"
        },
        {
            "bufferView" : 7,
            "componentType" : 5126,
            "count" : 115,
            "type" : "VEC2"
        },
        {
            "bufferView" : 8,
            "componentType" : 5123,
            "count" : 117,
            "type" : "SCALAR"
        },
        {
            "bufferView" : 10,
            "componentType" : 5126,
            "count" : 391,
            "max" : [
                -0.46584901213645935,
                1.099882960319519,
                -1.9081560373306274
            ],
            "min" : [
                -1.9373459815979004,
                -0.8590450286865234,
                -3.3682000637054443
            ],
            "type" : "VEC3"
        },
        {
            "bufferView" : 11,
            "componentType" : 5126,
            "count" : 391,
            "type" : "VEC3"
        },
        {
            "bufferView" : 12,
            "componentType" : 5126,
            "count" : 391,
            "type" : "VEC2"
        },
        {
            "bufferView" : 13,
            "componentType" : 5123,
            "count" : 399,
            "type" : "SCALAR"
        },
        {
            "bufferView" : 14,
            "componentType" : 5126,
            "count" : 113,
            "max" : [
                -0.518097996711731,
                1.099882960319519,
                -1.9081560373306274
            ],
            "min" : [
                -1.9373459815979004,
                -0.8590450286865234,
                -3.3682000637054443
            ],
            "type" : "VEC3"
        },
        {
            "bufferView" : 15,
            "componentType" : 5126,
            "count" : 113,
            "type" : "VEC3"
        },
        {
            "bufferView" : 16,
            "componentType" : 5126,
            "count" : 113,
            "type" : "VEC2"
        },
        {
            "bufferView" : 17,
            "componentType" : 5123,
            "count" : 117,
            "type" : "SCALAR"
        },
        {
            "bufferView" : 18,
            "componentType" : 5126,
            "count" : 32,
            "max" : [
                -0.518097996711731,
                1.0759849548339844,
                -1.9081560373306274
            ],
            "min" : [
                -1.8780280351638794,
                -0.9237059950828552,
                -2.1700479984283447
            ],
            "type" : "VEC3"
        },
        {
            "bufferView" : 19,
            "componentType" : 5126,
            "count" : 32,
            "type" : "VEC3"
        },
        {
            "bufferView" : 20,
            "componentType" : 5126,
            "count" : 32,
            "type" : "VEC2"
        },
        {
            "bufferView" : 21,
            "componentType" : 5123,
            "count" : 84,
            "type" : "SCALAR"
        }
    ],
    "bufferViews" : [
        {
            "buffer" : 0,
            "byteLength" : 4452,
            "byteOffset" : 0
        },
        {
            "buffer" : 0,
            "byteLength" : 4452,
            "byteOffset" : 4452
        },
        {
            "buffer" : 0,
            "byteLength" : 2968,
            "byteOffset" : 8904
        },
        {
            "buffer" : 0,
            "byteLength" : 762,
            "byteOffset" : 11872
        },
        {
            "buffer" : 0,
            "byteLength" : 858511,
            "byteOffset" : 12636
        },
        {
            "buffer" : 0,
            "byteLength" : 1380,
            "byteOffset" : 871148
        },
        {
            "buffer" : 0,
            "byteLength" : 1380,
            "byteOffset" : 872528
        },
        {
            "buffer" : 0,
            "byteLength" : 920,
            "byteOffset" : 873908
        },
        {
            "buffer" : 0,
            "byteLength" : 234,
            "byteOffset" : 874828
        },
        {
            "buffer" : 0,
            "byteLength" : 952128,
            "byteOffset" : 875064
        },
        {
            "buffer" : 0,
            "byteLength" : 4692,
            "byteOffset" : 1827192
        },
        {
            "buffer" : 0,
            "byteLength" : 4692,
            "byteOffset" : 1831884
        },
        {
            "buffer" : 0,
            "byteLength" : 3128,
            "byteOffset" : 1836576
        },
        {
            "buffer" : 0,
            "byteLength" : 798,
            "byteOffset" : 1839704
        },
        {
            "buffer" : 0,
            "byteLength" : 1356,
            "byteOffset" : 1840504
        },
        {
            "buffer" : 0,
            "byteLength" : 1356,
            "byteOffset" : 1841860
        },
        {
            "buffer" : 0,
            "byteLength" : 904,
            "byteOffset" : 1843216
        },
        {
            "buffer" : 0,
            "byteLength" : 234,
            "byteOffset" : 1844120
        },
        {
            "buffer" : 0,
            "byteLength" : 384,
            "byteOffset" : 1844356
        },
        {
            "buffer" : 0,
            "byteLength" : 384,
            "byteOffset" : 1844740
        },
        {
            "buffer" : 0,
            "byteLength" : 256,
            "byteOffset" : 1845124
        },
        {
            "buffer" : 0,
            "byteLength" : 168,
            "byteOffset" : 1845380
        }
    ],
    "buffers" : [
        {
            "byteLength" : 1845548,
            "uri" : "data:application/octet-stream;base64,"
        }
    ]
}
