{
    "asset" : {
        "generator" : "Khronos glTF Blender I/O v1.3.48",
        "version" : "2.0"
    },
    "scene" : 0,
    "scenes" : [
        {
            "name" : "Scene",
            "nodes" : [
                0
            ]
        }
    ],
    "nodes" : [
        {
            "mesh" : 0,
            "name" : "lark_five.002",
            "rotation" : [
                0.7071068286895752,
                0,
                0,
                0.7071067094802856
            ]
        }
    ],
    "materials" : [
        {
            "doubleSided" : true,
            "emissiveFactor" : [
                0,
                0,
                0
            ],
            "name" : "Material.004",
            "pbrMetallicRoughness" : {
                "baseColorFactor" : [
                    0.21420711278915405,
                    0.21420711278915405,
                    0.21420711278915405,
                    1
                ],
                "metallicFactor" : 0,
                "roughnessFactor" : 0.5
            }
        }
    ],
    "meshes" : [
        {
            "name" : "lark_five.002",
            "primitives" : [
                {
                    "attributes" : {
                        "POSITION" : 0,
                        "NORMAL" : 1,
                        "TEXCOORD_0" : 2
                    },
                    "indices" : 3,
                    "material" : 0
                }
            ]
        }
    ],
    "accessors" : [
        {
            "bufferView" : 0,
            "componentType" : 5126,
            "count" : 1189,
            "max" : [
                1.297961950302124,
                0.8154280185699463,
                -0.05315599963068962
            ],
            "min" : [
                -0.885013997554779,
                -0.7220529913902283,
                -2.6731960773468018
            ],
            "type" : "VEC3"
        },
        {
            "bufferView" : 1,
            "componentType" : 5126,
            "count" : 1189,
            "type" : "VEC3"
        },
        {
            "bufferView" : 2,
            "componentType" : 5126,
            "count" : 1189,
            "type" : "VEC2"
        },
        {
            "bufferView" : 3,
            "componentType" : 5123,
            "count" : 1332,
            "type" : "SCALAR"
        }
    ],
    "bufferViews" : [
        {
            "buffer" : 0,
            "byteLength" : 14268,
            "byteOffset" : 0
        },
        {
            "buffer" : 0,
            "byteLength" : 14268,
            "byteOffset" : 14268
        },
        {
            "buffer" : 0,
            "byteLength" : 9512,
            "byteOffset" : 28536
        },
        {
            "buffer" : 0,
            "byteLength" : 2664,
            "byteOffset" : 38048
        }
    ],
    "buffers" : [
        {
            "byteLength" : 40712,
            "uri" : "data:application/octet-stream;base64,"
        }
    ]
}
