{
    "asset" : {
        "generator" : "Khronos glTF Blender I/O v1.3.48",
        "version" : "2.0"
    },
    "scene" : 0,
    "scenes" : [
        {
            "name" : "Scene",
            "nodes" : [
                0
            ]
        }
    ],
    "nodes" : [
        {
            "mesh" : 0,
            "name" : "lark_4",
            "rotation" : [
                0.7071068286895752,
                0,
                0,
                0.7071067094802856
            ],
            "translation" : [
                1.9021326303482056,
                0,
                0.7843375205993652
            ]
        }
    ],
    "materials" : [
        {
            "doubleSided" : true,
            "emissiveFactor" : [
                0,
                0,
                0
            ],
            "name" : "Material",
            "pbrMetallicRoughness" : {
                "baseColorFactor" : [
                    0.22557784616947174,
                    0.22557784616947174,
                    0.22557784616947174,
                    1
                ],
                "metallicFactor" : 0,
                "roughnessFactor" : 0.4000000059604645
            }
        }
    ],
    "meshes" : [
        {
            "name" : "lark_4",
            "primitives" : [
                {
                    "attributes" : {
                        "POSITION" : 0,
                        "NORMAL" : 1,
                        "TEXCOORD_0" : 2
                    },
                    "indices" : 3,
                    "material" : 0
                }
            ]
        }
    ],
    "accessors" : [
        {
            "bufferView" : 0,
            "componentType" : 5126,
            "count" : 914,
            "max" : [
                1.7071629762649536,
                0.823855996131897,
                -0.9438470005989075
            ],
            "min" : [
                -0.7410709857940674,
                -0.9376879930496216,
                -3.2495129108428955
            ],
            "type" : "VEC3"
        },
        {
            "bufferView" : 1,
            "componentType" : 5126,
            "count" : 914,
            "type" : "VEC3"
        },
        {
            "bufferView" : 2,
            "componentType" : 5126,
            "count" : 914,
            "type" : "VEC2"
        },
        {
            "bufferView" : 3,
            "componentType" : 5123,
            "count" : 966,
            "type" : "SCALAR"
        }
    ],
    "bufferViews" : [
        {
            "buffer" : 0,
            "byteLength" : 10968,
            "byteOffset" : 0
        },
        {
            "buffer" : 0,
            "byteLength" : 10968,
            "byteOffset" : 10968
        },
        {
            "buffer" : 0,
            "byteLength" : 7312,
            "byteOffset" : 21936
        },
        {
            "buffer" : 0,
            "byteLength" : 1932,
            "byteOffset" : 29248
        }
    ],
    "buffers" : [
        {
            "byteLength" : 31180,
            "uri" : "data:application/octet-stream;base64,"
        }
    ]
}
