{
    "asset" : {
        "generator" : "Khronos glTF Blender I/O v1.3.48",
        "version" : "2.0"
    },
    "scene" : 0,
    "scenes" : [
        {
            "name" : "Scene",
            "nodes" : [
                0
            ]
        }
    ],
    "nodes" : [
        {
            "mesh" : 0,
            "name" : "lark_3.001",
            "rotation" : [
                0.7071068286895752,
                0,
                0,
                0.7071067094802856
            ],
            "translation" : [
                -0.10731863975524902,
                0.16935527324676514,
                0.13186967372894287
            ]
        }
    ],
    "materials" : [
        {
            "doubleSided" : true,
            "emissiveFactor" : [
                0,
                0,
                0
            ],
            "name" : "Material.003",
            "pbrMetallicRoughness" : {
                "baseColorFactor" : [
                    0.21499265730381012,
                    0.21499265730381012,
                    0.21499265730381012,
                    1
                ],
                "metallicFactor" : 0,
                "roughnessFactor" : 0.5
            }
        }
    ],
    "meshes" : [
        {
            "name" : "lark_3.001",
            "primitives" : [
                {
                    "attributes" : {
                        "POSITION" : 0,
                        "NORMAL" : 1,
                        "TEXCOORD_0" : 2
                    },
                    "indices" : 3,
                    "material" : 0
                }
            ]
        }
    ],
    "accessors" : [
        {
            "bufferView" : 0,
            "componentType" : 5126,
            "count" : 1020,
            "max" : [
                0.7730964422225952,
                1.1355000734329224,
                1.2517125606536865
            ],
            "min" : [
                -0.6984004974365234,
                -0.9300038814544678,
                -1.3765915632247925
            ],
            "type" : "VEC3"
        },
        {
            "bufferView" : 1,
            "componentType" : 5126,
            "count" : 1020,
            "type" : "VEC3"
        },
        {
            "bufferView" : 2,
            "componentType" : 5126,
            "count" : 1020,
            "type" : "VEC2"
        },
        {
            "bufferView" : 3,
            "componentType" : 5123,
            "count" : 1098,
            "type" : "SCALAR"
        }
    ],
    "bufferViews" : [
        {
            "buffer" : 0,
            "byteLength" : 12240,
            "byteOffset" : 0
        },
        {
            "buffer" : 0,
            "byteLength" : 12240,
            "byteOffset" : 12240
        },
        {
            "buffer" : 0,
            "byteLength" : 8160,
            "byteOffset" : 24480
        },
        {
            "buffer" : 0,
            "byteLength" : 2196,
            "byteOffset" : 32640
        }
    ],
    "buffers" : [
        {
            "byteLength" : 34836,
            "uri" : "data:application/octet-stream;base64,"
        }
    ]
}
