{
    "asset" : {
        "generator" : "Khronos glTF Blender I/O v1.3.48",
        "version" : "2.0"
    },
    "scene" : 0,
    "scenes" : [
        {
            "name" : "Scene",
            "nodes" : [
                0
            ]
        }
    ],
    "nodes" : [
        {
            "mesh" : 0,
            "name" : "lark_six.001",
            "rotation" : [
                0.7071068286895752,
                0,
                0,
                0.7071067094802856
            ]
        }
    ],
    "materials" : [
        {
            "doubleSided" : true,
            "emissiveFactor" : [
                0,
                0,
                0
            ],
            "name" : "Material.002",
            "pbrMetallicRoughness" : {
                "baseColorFactor" : [
                    0.21527773141860962,
                    0.21527773141860962,
                    0.21527773141860962,
                    1
                ],
                "metallicFactor" : 0,
                "roughnessFactor" : 0.5
            }
        }
    ],
    "meshes" : [
        {
            "name" : "lark_six.001",
            "primitives" : [
                {
                    "attributes" : {
                        "POSITION" : 0,
                        "NORMAL" : 1,
                        "TEXCOORD_0" : 2
                    },
                    "indices" : 3,
                    "material" : 0
                }
            ]
        }
    ],
    "accessors" : [
        {
            "bufferView" : 0,
            "componentType" : 5126,
            "count" : 1217,
            "max" : [
                1.180083990097046,
                1.123600959777832,
                -0.3677369952201843
            ],
            "min" : [
                -0.7423980236053467,
                -1.2056130170822144,
                -3.2354860305786133
            ],
            "type" : "VEC3"
        },
        {
            "bufferView" : 1,
            "componentType" : 5126,
            "count" : 1217,
            "type" : "VEC3"
        },
        {
            "bufferView" : 2,
            "componentType" : 5126,
            "count" : 1217,
            "type" : "VEC2"
        },
        {
            "bufferView" : 3,
            "componentType" : 5123,
            "count" : 1329,
            "type" : "SCALAR"
        }
    ],
    "bufferViews" : [
        {
            "buffer" : 0,
            "byteLength" : 14604,
            "byteOffset" : 0
        },
        {
            "buffer" : 0,
            "byteLength" : 14604,
            "byteOffset" : 14604
        },
        {
            "buffer" : 0,
            "byteLength" : 9736,
            "byteOffset" : 29208
        },
        {
            "buffer" : 0,
            "byteLength" : 2658,
            "byteOffset" : 38944
        }
    ],
    "buffers" : [
        {
            "byteLength" : 41604,
            "uri" : "data:application/octet-stream;base64,"
        }
    ]
}
