{
    "asset" : {
        "generator" : "Khronos glTF Blender I/O v1.3.48",
        "version" : "2.0"
    },
    "scene" : 0,
    "scenes" : [
        {
            "name" : "Scene",
            "nodes" : [
                0
            ]
        }
    ],
    "nodes" : [
        {
            "mesh" : 0,
            "name" : "lark_five",
            "rotation" : [
                0.7071068286895752,
                0,
                0,
                0.7071067094802856
            ]
        }
    ],
    "materials" : [
        {
            "doubleSided" : true,
            "emissiveFactor" : [
                0,
                0,
                0
            ],
            "name" : "Material.004",
            "pbrMetallicRoughness" : {
                "baseColorFactor" : [
                    0.21420711278915405,
                    0.21420711278915405,
                    0.21420711278915405,
                    1
                ],
                "metallicFactor" : 0,
                "roughnessFactor" : 0.5
            }
        }
    ],
    "meshes" : [
        {
            "name" : "lark_five",
            "primitives" : [
                {
                    "attributes" : {
                        "POSITION" : 0,
                        "NORMAL" : 1,
                        "TEXCOORD_0" : 2
                    },
                    "indices" : 3,
                    "material" : 0
                }
            ]
        }
    ],
    "accessors" : [
        {
            "bufferView" : 0,
            "componentType" : 5126,
            "count" : 508,
            "max" : [
                1.308364748954773,
                0.8154280185699463,
                -0.06127093732357025
            ],
            "min" : [
                -0.885013997554779,
                -0.7141716480255127,
                -2.6731960773468018
            ],
            "type" : "VEC3"
        },
        {
            "bufferView" : 1,
            "componentType" : 5126,
            "count" : 508,
            "type" : "VEC3"
        },
        {
            "bufferView" : 2,
            "componentType" : 5126,
            "count" : 508,
            "type" : "VEC2"
        },
        {
            "bufferView" : 3,
            "componentType" : 5123,
            "count" : 621,
            "type" : "SCALAR"
        }
    ],
    "bufferViews" : [
        {
            "buffer" : 0,
            "byteLength" : 6096,
            "byteOffset" : 0
        },
        {
            "buffer" : 0,
            "byteLength" : 6096,
            "byteOffset" : 6096
        },
        {
            "buffer" : 0,
            "byteLength" : 4064,
            "byteOffset" : 12192
        },
        {
            "buffer" : 0,
            "byteLength" : 1242,
            "byteOffset" : 16256
        }
    ],
    "buffers" : [
        {
            "byteLength" : 17500,
            "uri" : "data:application/octet-stream;base64,"
        }
    ]
}
