{
    "asset" : {
        "generator" : "Khronos glTF Blender I/O v1.3.48",
        "version" : "2.0"
    },
    "scene" : 0,
    "scenes" : [
        {
            "name" : "Scene",
            "nodes" : [
                0
            ]
        }
    ],
    "nodes" : [
        {
            "mesh" : 0,
            "name" : "lark_1",
            "rotation" : [
                0.7071068286895752,
                0,
                0,
                0.7071067094802856
            ],
            "translation" : [
                0.008946716785430908,
                -0.013537764549255371,
                0
            ]
        }
    ],
    "materials" : [
        {
            "doubleSided" : true,
            "emissiveFactor" : [
                0,
                0,
                0
            ],
            "name" : "Material.008",
            "pbrMetallicRoughness" : {
                "baseColorFactor" : [
                    0.22557784616947174,
                    0.22557784616947174,
                    0.22557784616947174,
                    1
                ],
                "metallicFactor" : 0,
                "roughnessFactor" : 0.4000000059604645
            }
        }
    ],
    "meshes" : [
        {
            "name" : "lark_1",
            "primitives" : [
                {
                    "attributes" : {
                        "POSITION" : 0,
                        "NORMAL" : 1,
                        "TEXCOORD_0" : 2
                    },
                    "indices" : 3,
                    "material" : 0
                }
            ]
        }
    ],
    "accessors" : [
        {
            "bufferView" : 0,
            "componentType" : 5126,
            "count" : 548,
            "max" : [
                1.0928895473480225,
                0.6421399712562561,
                0.8169103860855103
            ],
            "min" : [
                -1.0977349281311035,
                -0.5797109603881836,
                -0.8589085340499878
            ],
            "type" : "VEC3"
        },
        {
            "bufferView" : 1,
            "componentType" : 5126,
            "count" : 548,
            "type" : "VEC3"
        },
        {
            "bufferView" : 2,
            "componentType" : 5126,
            "count" : 548,
            "type" : "VEC2"
        },
        {
            "bufferView" : 3,
            "componentType" : 5123,
            "count" : 576,
            "type" : "SCALAR"
        }
    ],
    "bufferViews" : [
        {
            "buffer" : 0,
            "byteLength" : 6576,
            "byteOffset" : 0
        },
        {
            "buffer" : 0,
            "byteLength" : 6576,
            "byteOffset" : 6576
        },
        {
            "buffer" : 0,
            "byteLength" : 4384,
            "byteOffset" : 13152
        },
        {
            "buffer" : 0,
            "byteLength" : 1152,
            "byteOffset" : 17536
        }
    ],
    "buffers" : [
        {
            "byteLength" : 18688,
            "uri" : "data:application/octet-stream;base64,"
        }
    ]
}
