<?xml version="1.0" standalone="no"?>
<!DOCTYPE svg PUBLIC "-//W3C//DTD SVG 20010904//EN"
 "http://www.w3.org/TR/2001/REC-SVG-20010904/DTD/svg10.dtd">
<svg version="1.0" xmlns="http://www.w3.org/2000/svg"
 width="512.000000pt" height="512.000000pt" viewBox="0 0 512.000000 512.000000"
 preserveAspectRatio="xMidYMid meet">
<metadata>
Created by potrace 1.11, written by Peter Selinger 2001-2013
</metadata>
<g transform="translate(0.000000,512.000000) scale(0.100000,-0.100000)"
fill="#000000" stroke="none">
<path d="M2468 4875 c-2 -1 -48 -5 -103 -9 -55 -3 -109 -8 -120 -10 -11 -2
-47 -7 -80 -11 -72 -8 -68 -8 -180 -34 -976 -230 -1706 -1073 -1790 -2071 -6
-67 -7 -367 -1 -395 2 -11 7 -47 10 -80 10 -84 17 -128 21 -145 2 -8 7 -28 10
-45 9 -55 13 -73 35 -152 213 -771 803 -1378 1568 -1614 52 -16 104 -31 116
-33 12 -3 55 -12 96 -21 41 -8 91 -18 110 -20 19 -3 53 -7 75 -10 103 -13 150
-16 280 -16 172 0 272 9 485 46 58 10 280 75 334 97 28 11 64 26 80 32 185 70
486 256 640 395 567 511 845 1192 793 1941 -15 211 -78 491 -147 655 -4 11
-18 45 -30 75 -176 433 -541 851 -958 1096 -263 155 -590 272 -842 300 -25 3
-51 7 -59 10 -8 3 -73 7 -145 10 -72 3 -146 7 -163 8 -18 2 -34 2 -35 1z"/>
</g>
</svg>
