{
    "asset" : {
        "generator" : "Khronos glTF Blender I/O v1.0.5",
        "version" : "2.0"
    },
    "scene" : 0,
    "scenes" : [
        {
            "name" : "Scene",
            "nodes" : [
                0,
                1,
                2,
                3
            ]
        }
    ],
    "nodes" : [
        {
            "mesh" : 0,
            "name" : "Cube"
        },
        {
            "name" : "Light",
            "rotation" : [
                0.16907575726509094,
                0.7558803558349609,
                -0.27217137813568115,
                0.570947527885437
            ],
            "translation" : [
                4.076245307922363,
                5.903861999511719,
                -1.0054539442062378
            ]
        },
        {
            "name" : "Camera",
            "rotation" : [
                0.483536034822464,
                0.33687159419059753,
                -0.20870360732078552,
                0.7804827094078064
            ],
            "translation" : [
                7.358891487121582,
                4.958309173583984,
                6.925790786743164
            ]
        },
        {
            "mesh" : 1,
            "name" : "lark_1.001",
            "rotation" : [
                0.7071068286895752,
                0,
                0,
                0.7071067094802856
            ],
            "translation" : [
                -0.1899999976158142,
                -1.899999976158142,
                -0.059999994933605194
            ]
        }
    ],
    "materials" : [
        {
            "doubleSided" : true,
            "name" : "Material",
            "pbrMetallicRoughness" : {
                "baseColorTexture" : {
                    "index" : 0,
                    "texCoord" : 0
                },
                "metallicFactor" : 0,
                "roughnessFactor" : 0.4000000059604645
            }
        }
    ],
    "meshes" : [
        {
            "name" : "Cube",
            "primitives" : [
                {
                    "attributes" : {
                        "POSITION" : 0,
                        "NORMAL" : 1,
                        "TEXCOORD_0" : 2
                    },
                    "indices" : 3,
                    "material" : 0
                }
            ]
        },
        {
            "name" : "lark_1.001",
            "primitives" : [
                {
                    "attributes" : {
                        "POSITION" : 4,
                        "NORMAL" : 5,
                        "TEXCOORD_0" : 6
                    },
                    "indices" : 7
                },
                {
                    "attributes" : {
                        "POSITION" : 8,
                        "NORMAL" : 9,
                        "TEXCOORD_0" : 10
                    },
                    "indices" : 11
                },
                {
                    "attributes" : {
                        "POSITION" : 12,
                        "NORMAL" : 13,
                        "TEXCOORD_0" : 14
                    },
                    "indices" : 15
                },
                {
                    "attributes" : {
                        "POSITION" : 16,
                        "NORMAL" : 17,
                        "TEXCOORD_0" : 18
                    },
                    "indices" : 19
                },
                {
                    "attributes" : {
                        "POSITION" : 20,
                        "NORMAL" : 21,
                        "TEXCOORD_0" : 22
                    },
                    "indices" : 23
                },
                {
                    "attributes" : {
                        "POSITION" : 24,
                        "NORMAL" : 25,
                        "TEXCOORD_0" : 26
                    },
                    "indices" : 27
                }
            ]
        }
    ],
    "textures" : [
        {
            "source" : 0
        }
    ],
    "images" : [
        {
            "mimeType" : "image/png",
            "name" : "Untitled",
            "uri" : "Untitled.png"
        }
    ],
    "accessors" : [
        {
            "bufferView" : 0,
            "componentType" : 5126,
            "count" : 24,
            "max" : [
                1.0765942335128784,
                4.932915687561035,
                2.4015159606933594
            ],
            "min" : [
                -3.760176181793213,
                -1,
                -1.20449960231781
            ],
            "type" : "VEC3"
        },
        {
            "bufferView" : 1,
            "componentType" : 5126,
            "count" : 24,
            "type" : "VEC3"
        },
        {
            "bufferView" : 2,
            "componentType" : 5126,
            "count" : 24,
            "type" : "VEC2"
        },
        {
            "bufferView" : 3,
            "componentType" : 5123,
            "count" : 36,
            "type" : "SCALAR"
        },
        {
            "bufferView" : 4,
            "componentType" : 5126,
            "count" : 1000,
            "max" : [
                0.588234007358551,
                0.61490797996521,
                -0.8300009965896606
            ],
            "min" : [
                -1.5625849962234497,
                -0.6083530187606812,
                -2.1093881130218506
            ],
            "type" : "VEC3"
        },
        {
            "bufferView" : 5,
            "componentType" : 5126,
            "count" : 1000,
            "type" : "VEC3"
        },
        {
            "bufferView" : 6,
            "componentType" : 5126,
            "count" : 1000,
            "type" : "VEC2"
        },
        {
            "bufferView" : 7,
            "componentType" : 5123,
            "count" : 1038,
            "type" : "SCALAR"
        },
        {
            "bufferView" : 8,
            "componentType" : 5126,
            "count" : 689,
            "max" : [
                0.6249579787254333,
                0.61490797996521,
                -0.8396070003509521
            ],
            "min" : [
                -1.5625849962234497,
                -0.6083530187606812,
                -1.9033910036087036
            ],
            "type" : "VEC3"
        },
        {
            "bufferView" : 9,
            "componentType" : 5126,
            "count" : 689,
            "type" : "VEC3"
        },
        {
            "bufferView" : 10,
            "componentType" : 5126,
            "count" : 689,
            "type" : "VEC2"
        },
        {
            "bufferView" : 11,
            "componentType" : 5123,
            "count" : 747,
            "type" : "SCALAR"
        },
        {
            "bufferView" : 12,
            "componentType" : 5126,
            "count" : 3,
            "max" : [
                0.5186259746551514,
                -0.2318439930677414,
                -1.6830010414123535
            ],
            "min" : [
                0.48368600010871887,
                -0.291718989610672,
                -1.7175840139389038
            ],
            "type" : "VEC3"
        },
        {
            "bufferView" : 13,
            "componentType" : 5126,
            "count" : 3,
            "type" : "VEC3"
        },
        {
            "bufferView" : 14,
            "componentType" : 5126,
            "count" : 3,
            "type" : "VEC2"
        },
        {
            "bufferView" : 15,
            "componentType" : 5123,
            "count" : 3,
            "type" : "SCALAR"
        },
        {
            "bufferView" : 16,
            "componentType" : 5126,
            "count" : 969,
            "max" : [
                0.5173149704933167,
                0.5478289723396301,
                -1.3527389764785767
            ],
            "min" : [
                -1.4617120027542114,
                -0.5367239713668823,
                -2.466856002807617
            ],
            "type" : "VEC3"
        },
        {
            "bufferView" : 17,
            "componentType" : 5126,
            "count" : 969,
            "type" : "VEC3"
        },
        {
            "bufferView" : 18,
            "componentType" : 5126,
            "count" : 969,
            "type" : "VEC2"
        },
        {
            "bufferView" : 19,
            "componentType" : 5123,
            "count" : 1023,
            "type" : "SCALAR"
        },
        {
            "bufferView" : 20,
            "componentType" : 5126,
            "count" : 690,
            "max" : [
                0.5672039985656738,
                0.5452399849891663,
                -1.3664569854736328
            ],
            "min" : [
                -1.4617120027542114,
                -0.4743199944496155,
                -2.466856002807617
            ],
            "type" : "VEC3"
        },
        {
            "bufferView" : 21,
            "componentType" : 5126,
            "count" : 690,
            "type" : "VEC3"
        },
        {
            "bufferView" : 22,
            "componentType" : 5126,
            "count" : 690,
            "type" : "VEC2"
        },
        {
            "bufferView" : 23,
            "componentType" : 5123,
            "count" : 732,
            "type" : "SCALAR"
        },
        {
            "bufferView" : 24,
            "componentType" : 5126,
            "count" : 6,
            "max" : [
                0.3993369936943054,
                0.41787800192832947,
                -1.3922879695892334
            ],
            "min" : [
                -0.42512598633766174,
                -0.44620299339294434,
                -1.5773789882659912
            ],
            "type" : "VEC3"
        },
        {
            "bufferView" : 25,
            "componentType" : 5126,
            "count" : 6,
            "type" : "VEC3"
        },
        {
            "bufferView" : 26,
            "componentType" : 5126,
            "count" : 6,
            "type" : "VEC2"
        },
        {
            "bufferView" : 27,
            "componentType" : 5123,
            "count" : 6,
            "type" : "SCALAR"
        }
    ],
    "bufferViews" : [
        {
            "buffer" : 0,
            "byteLength" : 288,
            "byteOffset" : 0
        },
        {
            "buffer" : 0,
            "byteLength" : 288,
            "byteOffset" : 288
        },
        {
            "buffer" : 0,
            "byteLength" : 192,
            "byteOffset" : 576
        },
        {
            "buffer" : 0,
            "byteLength" : 72,
            "byteOffset" : 768
        },
        {
            "buffer" : 0,
            "byteLength" : 12000,
            "byteOffset" : 840
        },
        {
            "buffer" : 0,
            "byteLength" : 12000,
            "byteOffset" : 12840
        },
        {
            "buffer" : 0,
            "byteLength" : 8000,
            "byteOffset" : 24840
        },
        {
            "buffer" : 0,
            "byteLength" : 2076,
            "byteOffset" : 32840
        },
        {
            "buffer" : 0,
            "byteLength" : 8268,
            "byteOffset" : 34916
        },
        {
            "buffer" : 0,
            "byteLength" : 8268,
            "byteOffset" : 43184
        },
        {
            "buffer" : 0,
            "byteLength" : 5512,
            "byteOffset" : 51452
        },
        {
            "buffer" : 0,
            "byteLength" : 1494,
            "byteOffset" : 56964
        },
        {
            "buffer" : 0,
            "byteLength" : 36,
            "byteOffset" : 58460
        },
        {
            "buffer" : 0,
            "byteLength" : 36,
            "byteOffset" : 58496
        },
        {
            "buffer" : 0,
            "byteLength" : 24,
            "byteOffset" : 58532
        },
        {
            "buffer" : 0,
            "byteLength" : 6,
            "byteOffset" : 58556
        },
        {
            "buffer" : 0,
            "byteLength" : 11628,
            "byteOffset" : 58564
        },
        {
            "buffer" : 0,
            "byteLength" : 11628,
            "byteOffset" : 70192
        },
        {
            "buffer" : 0,
            "byteLength" : 7752,
            "byteOffset" : 81820
        },
        {
            "buffer" : 0,
            "byteLength" : 2046,
            "byteOffset" : 89572
        },
        {
            "buffer" : 0,
            "byteLength" : 8280,
            "byteOffset" : 91620
        },
        {
            "buffer" : 0,
            "byteLength" : 8280,
            "byteOffset" : 99900
        },
        {
            "buffer" : 0,
            "byteLength" : 5520,
            "byteOffset" : 108180
        },
        {
            "buffer" : 0,
            "byteLength" : 1464,
            "byteOffset" : 113700
        },
        {
            "buffer" : 0,
            "byteLength" : 72,
            "byteOffset" : 115164
        },
        {
            "buffer" : 0,
            "byteLength" : 72,
            "byteOffset" : 115236
        },
        {
            "buffer" : 0,
            "byteLength" : 48,
            "byteOffset" : 115308
        },
        {
            "buffer" : 0,
            "byteLength" : 12,
            "byteOffset" : 115356
        }
    ],
    "buffers" : [
        {
            "byteLength" : 115368,
            "uri" : "untitled.bin"
        }
    ]
}
